# xmcd
#
# Track frame offsets: 
#        150
#        19269
#        38224
#        53061
#        68860
#        86088
#        104009
#        119357
#        138129
#        159010
#        172589
#        185883
#        208893
#
# Disc length: 2942 seconds
#
# Revision: 0
# Processed by: cddbd v1.5.2PL0 Copyright (c) Steve Scherf et al.
# Submitted via: ExactAudioCopy v0.99pb4
#
DISCID=b00b7c0d
DTITLE=Prudence Johnson - Moon Country
DYEAR=2002
DGENRE=Vocal
TTITLE0=Rockin' Chair
TTITLE1=In the Cool, Cool, Cool of the Evening 
TTITLE2=Moon Country
TTITLE3=Lazy River
TTITLE4=Hong Kong Blues
TTITLE5=Baltimore Oriole
TTITLE6=Bread and Gravy
TTITLE7=Skylark
TTITLE8=How Little We Know
TTITLE9=I Get Along Without You Very Well
TTITLE10=My Resistance Is Low
TTITLE11=The Nearness of You
TTITLE12=Heart and Soul
EXTD=
EXTT0=
EXTT1=
EXTT2=
EXTT3=
EXTT4=
EXTT5=
EXTT6=
EXTT7=
EXTT8=
EXTT9=
EXTT10=
EXTT11=
EXTT12=
PLAYORDER=
